<svg width="24" height="24" viewBox="0 0 24 24" fill="none" xmlns="http://www.w3.org/2000/svg">
<path d="M8.96306 13.0731L8.58334 14.4767L7.19545 14.5058C6.78068 13.744 6.54541 12.8725 6.54541 11.9463C6.54541 11.0507 6.76538 10.2061 7.15529 9.4624H7.15559L8.3912 9.68671L8.93247 10.9029C8.81918 11.2299 8.75743 11.581 8.75743 11.9463C8.75748 12.3427 8.83 12.7226 8.96306 13.0731Z" fill="#FBBB00"/>
<path d="M17.3594 10.9375C17.422 11.2642 17.4547 11.6016 17.4547 11.9465C17.4547 12.3332 17.4136 12.7103 17.3354 13.0742C17.0699 14.3122 16.3761 15.3933 15.415 16.1584L15.4147 16.1581L13.8583 16.0794L13.6381 14.7179C14.2758 14.3476 14.7742 13.768 15.0368 13.0742H12.1201V10.9375H15.0793H17.3594Z" fill="#518EF8"/>
<path d="M15.4142 16.158L15.4145 16.1583C14.4797 16.9023 13.2923 17.3474 11.9997 17.3474C9.92255 17.3474 8.11659 16.1978 7.19531 14.506L8.96292 13.0732C9.42355 14.2905 10.6095 15.1571 11.9997 15.1571C12.5973 15.1571 13.1572 14.9971 13.6376 14.7179L15.4142 16.158Z" fill="#28B446"/>
<path d="M15.4814 7.78882L13.7144 9.22127C13.2172 8.91354 12.6295 8.73577 11.9999 8.73577C10.5781 8.73577 9.37002 9.64206 8.93247 10.903L7.15557 9.46254H7.15527C8.06306 7.72947 9.8918 6.54541 11.9999 6.54541C13.3233 6.54541 14.5368 7.01222 15.4814 7.78882Z" fill="#F14336"/>
</svg>
